<?xml version="1.0" encoding="utf-8"?>
<!-- Generator: Adobe Illustrator 21.0.2, SVG Export Plug-In . SVG Version: 6.00 Build 0)  -->
<svg version="1.1"
	 xmlns:svg="http://www.w3.org/2000/svg"
	 xmlns="http://www.w3.org/2000/svg" xmlns:xlink="http://www.w3.org/1999/xlink" x="0px" y="0px" viewBox="0 0 570 380"
	 style="enable-background:new 0 0 570 380;" xml:space="preserve">
<style type="text/css">
	.st0{fill:#BB2222;}
</style>
<path class="st0" d="M7.5,35.5C27,59.6,48.6,81.1,71.6,102.9c-11.3,2.6-21.2,0.8-32.1-0.6c3.1,6.3,6.1,12.7,9.2,19
	c29.9-17.5,64.9-4.4,65.2,19c-1,27.2-23.4,30.2-53.5,23.7c3.8,24.8,60.3,13.6,60.3,13.6c20.3-7,39.5-5.8,60.8-5.6
	c-4.4-13.6-29-25.7-47.7-20.3c26.2-29.4-3.7-65.8-39.8-77c39.3-13,5.5-42.9-23.9-64.4c0,0,84.6,35.6,92.3,35.5
	c24-1.8,17.4-30.3,8.2-45.6c45.3,25,85.8,51.1,125.6,84.3c19.1,16.7,13.7,30,14.5,45c-0.6,10.1,2.2,19.4,8.4,25.1
	c14.2,2.9,28.3,5.7,42.5,8.6c1.4-3.9,2.7-7.8,4.1-11.7c-1.3-6-6.3-9-16.7-5.2c-0.8-7.7,5.4-10.9,12.7-13.6c2.5-1.9,5.6-3.4,5.2-10.1
	c1.2-15.1-23.1,1.1-23.3,1.1c-0.2,0,0.8-15.2,12-18.3c6.1-2.2,8.6-8.6,6.3-13.3c-4.9-9.7-14,0.8-21,1.1c0.3-6.3,2.1-10.8,7.5-16
	c2.9-1.8,10.2-3.2,10.3-6.2c0.2-4.1-6.8-5.9-16.3-4.7c2-5.8,8.4-9.5,17.2-12.2c1.7-3,3.5-6,5.2-9c2.5-4.6,3.6-4.7-2.1-13.3
	c-5.1-3.3-11.9-8-17.1-11.3c1.9-0.2,3.8-0.5,5.6-0.7c-0.8-6.2-0.8-8.3-2.3-18.5c5.5,7.5,12.4,6.2,18.5,9.3c0,0,17.6,3.1,23.3,10.6
	c0.2,0,44.3-2.3,44.3-2.3c9.4,1.3,17.4,4,19,13.1c21.5,2.2,44,0.3,60.3,20.8c-11.1-0.5-20.9-3.2-33.4-1.6c0,0-10.7,0.2-12.9,11.5
	c-0.2,0.5-3.6,0.5-3.6,0.5c-1.4,1.1-2.7,2.1-4.1,3.2c-0.5-1.4-1.1-2.9-1.6-4.3c-1.2,0.8-2.4,1.7-3.6,2.5c-0.4-1.6-0.8-3.2-1.1-4.7
	c-1.2,0.8-2.4,1.7-3.6,2.5c-0.1-1.9-0.2-3.8-0.2-5.6c-1.6,1.1-3.2,2.3-4.7,3.4c0-2.5,0-5,0-7.5c0,0-17.5,0-22.8,11.1
	c-0.2,0.2,49.1,9.1,96.7,5c-4.6-2.3-9.2-4.5-13.8-6.8c17.4-3.5,33.7-6.7,49-18.8c-5.8,21.8-35.7,47.3-41.8,47.2
	c0,0.2,5.9-10.6,5.9-10.6c-17.2,0.8-34.5,1.5-51.7,2.3c-1.9,5.7-1,12.1-5.6,17.2c0,0,2.9,9.5-3.5,13.3c-0.2,0.5-7.6-19.2-7.6-19.2
	s-2.3,5.3-4.5,8.8C442.2,84.8,423.8,82,423.8,82s-3.8,8.8-3.8,9c5.7,0.8,12.9,12.6,9,19c3.9,0.1,10.7,11.4,8.6,17.6
	c3.2,3.2,11.3,7.5,9.3,21c6.4,1.4,10.1,13,8.1,25.3c9.8,9.1,7.4,26-1.4,32.8c3.6,3.2,5.9,5.7,5.9,9.7c3.5-1.3,6.6-0.2,8.1,2
	c4.2-4.3,10.4-8.1,14.7-4.1c1.1-5.1,7.8-10.8,15.1-10.2c-0.4-5.4,2.4-12.1,10.2-14.5c0,0,1.6-25.4,9.3-33.7
	c0.8-4.6-0.4-7.7-6.8-11.5c-6.3-3.4-7.7-6-7.2-15.6c-2.5-6.4-4.4-13,3.4-17.4c-0.2,7.6,2.1,11.3,5.2,14.7c3.7-0.5,5,3.8,7.5,5.6
	c3.5-4.7-7.3-11.9,0.7-22.4c0.5-0.5,5.6-13.6,18.3-13.3c-6,3.5-8.6,9.5-8.6,15.6c4,11.3,6,20,2,33c5.3-7.9,8.3-22.9,12.7-25.5
	c3.8-0.7,5.7-9.8,20.6-7.2c-6.4,1.7-8.4,6.6-10.2,11.1c3.9,2,2,7.4-0.9,11.1c0.5,8.7-4.7,13.7-12.4,16.9c1.3,11.8,2.6,23.6,3.8,35.5
	c3.1-0.4,7.8,11.6,9.7,12c3,1.9,8.3,6.9,2.3,8.4c1.8,6.5,3.4,10.4,13.1,11.7c0,0-10.2,6.1-18.7-4.3c-9.1-0.2-6.1-11.1-10.5-15.8
	c0-0.2-2.5-1.8-6.1-11.3c-1.6,8.5-10.3,34.5-30,47.4c-17.2,18.4-31.3,35.8-31.2,60.3c-6.7-6.2-10.7-16.1-13.8-25.5
	c-9.3-3.2-22.7-4.5-34.6-3.9c2,4.3,4.3,8.4,1.4,11.2c8.3,2.9,10.1,8.9,6.8,14.9c8.8,5.9,9.3,9.8,9.5,19.7
	c16.2,20.8,26.2,20.1,42.2,14.7c5.3-3.1,13.4-7.5,17.2-5.2c6.9-4.6,16.9-5.3,18.5,5.2c-5.2-4.3-8.3-3.5-12.4,0.7
	c0.8,2.1,1.5,4.2-1.6,5.4c1.4,1.5,2.7,3,4.1,4.5c7.5-1.1,17.5-1.1,20.1,9.7c-3.8-3.2-12.3-3.9-19.2-0.9c-1.3,0.5-2.6,0.9-3.8,1.4
	c-0.2,1.7-0.3,3.5-0.5,5.2c0,0,10.2-1.6,12.9,14.9c-9.5-10.1-16.3-7.5-16.3-7.5c-3.7,5.4-17.2,4.5-26.9-4.3
	c-13.6-7.6-17.6,3.3-26.4-3.8c-7.3-5.4-16-1.8-21.9,4.5c-6.9,2.6-14,4.7-19.7,0c0,0-6.9-4.4-13.8,2.7c-0.1-8,5.6-12.3,13.3-12.4
	c0.8-0.8,0.3,0.3,2.3-2.3c7.2-1.5,15.4-0.9,21.7-4.5c-3-11.3-7.3-21.6-15.8-30.3c-10.5-11.2-18.2-16.3-31.4-33.5
	c0.5,9.7-6.9,20.5-10.8,30.3c0,0-7.9-12.6-9-22.8c-0.2,0-9.9-5-14-9.3c-8.7,5.4-22.9-4.3-32.1-12.4c-5.7,2.1-9.9,2-16.5,0
	c5.3,10.7-3.1,20.7-16.3,24.9c-1.2,9.5-10.8,11.4-25.3,11.5c-0.6,5.6-9.3,6.3-9.3,6.3c5.5,2.5,8.3,5.1,8.1,10.8
	c5.6,0,9.8,1.5,11.3,7.9c7.7,0.1,15.5,0.7,22.1,4.5c7.1-1.1,15.7-4,21.2-9.7c2.9-2.4,3.6-5.9,8.6-7.2c3.2-3.7,6.9-2.9,8.1,0.7
	c3.3-2.6,15.6-3.7,17.6,7.9c-5.7-4.2-10.9-5.8-14.5-0.7c2,3.6-4.8,5.6-10.6,7c-4.1,0.3-11.5,4-13.8,10.4c5.3,1.6,13.4,1.1,18.8-2.9
	c4.7-4,11.2-3.5,14.7-0.9c4.9-3.1,16.5,2.8,16.9,12.2c-4.9-4.5-9.3-6.7-13.8-3.8c2.2,0.5,1.4,0.7,1.1,2c-3.8,2.2-7.5,4.4-11.3,6.6
	c5.5,1.5,10.8,3.7,8.4,14c0,0-4.5-8.9-14.7-5.6c-0.2-0.2-1.4,3.2-4.3,0.9c-4.4-5-14.4-7.3-23.3-8.1c-7.1-0.8-14.2-2.9-20.3,1.1
	c-5.5-2.8-11.6-4.7-17.8-0.2c-7.4,2.3-12.8,10.9-22.1,7c-4.7-3.2-10.4-3.4-16.3,3.2c-0.1-8.3,6.1-11,14.9-12.9
	c2-1.2,4.1-2.4,6.1-3.6c5.6-0.8,11.3,0.2,16.9-2.5c-29.6-7.6-50.3-24.1-64.8-47.7c-4.7,1.7-9.3,3.3-14,5c-3.3,0.2-3.6,1.3-10.4,3.4
	c-0.3-10.1,4.1-20.4,22.1-21.5c7.9-3,15.8-6,23.7-9c5-5.3,7.3-16.6,0.9-23.3c-6.3-5.6-7.4-4.9-11.5-11.7c-5-0.5-9.8,4.7-14.5,4.7
	c-2.2,6.6-14.9,12.4-23,10.4c-5.1,4.5-14.7,7-25.3,3.4c-6,5.3-13.8,7.5-23,3.4c-2.4,2.4-7.6,4.4-13.6,3.2c-0.5,0-3,6.5-9.5,8.8
	c2.8,2.8,1.1,14.7-1.8,19c2,4.6,2.6,9.5,0.9,14.2c6.5,4.2,7.9,7.3,5,14.5c8.6,13.8,18.8,15.3,28.5,11.1c3.5-2.2,6.9-4.4,10.4-6.6
	c3.7-3.6,7.4-7.2,11.1-10.8c1.9-1.8,5.7-2.3,6.6,1.6c0,0,14.2-3.2,15.4,8.8c-5.9-5.7-14.2-0.7-14.2-0.5c0,0.2,2,1.6,0.5,3.9
	c0,0-24.8,10.7-31.5,13.4c5.7-2.2,24.5-9.1,24.5-9.1c5.1-0.5,10.4-1.1,12.9,2.7c5.4,2.3,13.9,4.1,13.6,14.2c-3.7-6-8.7-5.8-15.1-5.2
	c0.2,0.5,0.3,0.9,0.5,1.4c-9.8,0.5-19.6,0.9-29.4,1.4c5.1,1.5,12.1,0.9,15.4,4.5c0.6,1.2,2.7,0.7,1.8,3.6c0,0,10-0.3,12.7,13.6
	c-10.2-6.5-17.8-6.3-18.1-6.3c-0.2,0-3.2,0.7-3.2,0.7s-12.2-8.1-12.4-8.1c-0.2,0-11.8-5.1-17.2,0.7c-4.7,2.3-9.6,2.4-14.5-0.5
	c-9.5-4.1-18.4-4.4-27.1,1.4c-2.6,1.6-5.3,3.2-7.9,4.7c-1.1-0.8-2.3-1.5-3.4-2.3c0,0-8.9-2.5-15.5,5.4c2.7-13.8,12.6-14.2,12.6-14.2
	c0.8-0.7,1.5-1.4,2.3-2c4.7-1.8,9.3-3.6,14-5.4c2-5,7.1-9.1,2-15.1c-5.2-25.9-11.4-45.4-1.4-71.6c-9.4,4.1-16.4,16.6-28.2,12.2
	c0-10.5,38.8-30.6,68.5-46.7c-48.6-2.5-106.9-38.4-84.5-83.9c-3.5-11-7.1-22-10.6-33c-5,10.1-15.1,17.7-24.2,21
	C7.5,109.3,11.8,65.6,7.5,35.5z M437,33.4l-10.4-2C426.6,31.5,429.9,43.3,437,33.4z"/>
</svg>
